<svg id="Layer_1" height="512" style="fill:white" viewBox="0 0 512 512" width="512" xmlns="http://www.w3.org/2000/svg" data-name="Layer 1"><path d="m238.216 178.735c2.029-.1 4.088-.117 6.122-.062a6 6 0 1 0 .328-12c-2.33-.065-4.692-.039-7.021.071a6 6 0 0 0 .281 11.993c.096.005.193.003.29-.002z"/><path d="m320.492 240.587a6 6 0 0 0 11.685-2.733 92.8 92.8 0 0 0 -69.846-68.986 6 6 0 0 0 -2.614 11.712 80.733 80.733 0 0 1 60.775 60.007z"/><path d="m362.571 352.555a6 6 0 0 0 7.167.361c45.137-30.259 77.589-67.431 93.848-107.5 16.781-41.354 16.426-86.129-1.029-129.484-20.318-50.464-67.05-89.457-121.957-101.762-60.886-13.642-124.019 6.265-177.77 56.055a6 6 0 0 0 .933 9.512c14.837 9.128 23.577 14.009 34.637 20.187 8.872 4.954 19.822 11.07 37.084 21.154l2.016 21.662c-.33.013-.659.02-.989.036a178.318 178.318 0 0 0 -20.2 2.114c-.106.017-.213.037-.319.061a155.361 155.361 0 0 0 -114.129 101.8 6.106 6.106 0 0 0 -.344 2.6 6.02 6.02 0 0 0 4.52 5.272l104.714 26.313a16.937 16.937 0 0 1 -7.086 33.1l-115.632-20.33a6 6 0 0 0 -6.783 4.175l-45 149.014a6 6 0 0 0 7.5 7.472l107.692-32.908a6 6 0 0 0 4.247-5.738 6 6 0 0 0 -7.754-5.738l-96.945 29.624 9.393-31.107 100.333-30.9a25.92 25.92 0 0 0 17.325-17.633l10.514-36.4 13.034 2.291a28.937 28.937 0 0 0 12.089-56.558l-28.568-7.179 30.576-40.525a10.239 10.239 0 0 0 -4.292-15.644l-51.82-21.262a144.656 144.656 0 0 1 58.829-27.979 164.068 164.068 0 0 1 18.675-1.945 104.429 104.429 0 0 1 106.781 80.357l.254 1.106c9.93 43.919-2 80.637-9.994 98.616l-.171.426c-5.6 15.7-11.387 34.062-9.236 53.337 2.371 21.256 7.516 39.443 15.292 54.054 8.694 16.338 20.484 27.813 35.151 34.255-26.144 15.4-58.641 17.368-85.691 4.528-45.68-21.679-51.9-90.531-51.958-91.219a6 6 0 0 0 -7.733-5.251l-39.836 12.173a6 6 0 1 0 3.507 11.476l33.026-10.092a181.132 181.132 0 0 0 8.558 33.5c10.574 29.13 27.619 49.964 49.291 60.25a101.059 101.059 0 0 0 43.379 9.718 103.831 103.831 0 0 0 12.039-.7 105.851 105.851 0 0 0 52.486-21.478 6 6 0 0 0 2.164-6.136 6.217 6.217 0 0 0 -4.644-4.493c-20.652-4.947-46.551-23.2-53.1-81.918-1.858-16.654 3.415-33.375 8.538-47.764 8.6-19.413 21.3-58.8 10.642-105.93l-.275-1.194q-1.251-5.353-2.976-10.48l4.858-1.617c2.418-.8 4.842-1.612 7.368-2.45 7.685 8.692 31.5 44.617-3.918 127.742a6 6 0 0 0 1.689 6.973zm-298.006 42.1 26.635-88.209 11.962 2.1-24.281 81.7zm28.097-8.655 22.4-75.36 12.781 2.247-20.374 68.554zm28.585-8.8 18.491-62.218 11.66 2.05-16.646 56.008zm45.268-20.563a13.957 13.957 0 0 1 -9.329 9.494l-8.654 2.665 14.763-49.671 13.376 2.352zm5.961-97.694-57.027-14.329a148.12 148.12 0 0 1 11-22.18l58.688 19.727zm32.259-42.757-11.978 15.876-59.42-19.973a142.221 142.221 0 0 1 16.172-18.562zm247.731 24.721a181.088 181.088 0 0 1 -19.366 35.335c-7.254-16.72-27.8-24.072-42.469-26.175-2-13.989-6.283-24.206-10.429-31.235 35.727-15.132 61.3-15.534 79.749-1.277a161.17 161.17 0 0 1 -7.485 23.351zm-24.361-159.574a134.958 134.958 0 0 0 -28.249 11.667 123.835 123.835 0 0 0 -52.848 56.158 94.338 94.338 0 0 0 -11.488-11.422c28.927-35.3 39.144-79.046 42.3-97.187a163.245 163.245 0 0 1 50.285 40.784zm-113.759-28.925a193.76 193.76 0 0 0 -7.246-30.359 160.44 160.44 0 0 1 59.415 13.107c-2.226 14.092-11.44 60.068-40.693 95.48q-3.134-2-6.552-3.82c-4.149-2.2-8.259-4.128-12.306-5.825 8.864-18.616 11.436-42.14 7.382-68.583zm-19.866-30.169c4.783 13.58 18.607 59.531 1.2 94.544a142 142 0 0 0 -22.161-5.33c.9-19.277-6.019-39.055-20.274-57.569a137.408 137.408 0 0 0 -16.745-18.044 172.629 172.629 0 0 1 57.98-13.601zm-90.225 67.208c-9.115-5.09-16.633-9.288-27.342-15.749a229.216 229.216 0 0 1 47.6-32.332c9.3 7.674 38.272 34.442 37.065 68.8a80.057 80.057 0 0 0 -19.506.862c-17.667-10.328-28.811-16.551-37.817-21.581zm149.381 119.453-5.469 1.82a116.535 116.535 0 0 0 -98.6-67.846l-1.911-20.565c10.238-1.027 36.4-.622 65.986 15.1 35.892 19.08 44.358 56.391 46.252 69.412zm9.661-33.219a110.373 110.373 0 0 0 -8.053-15.3c9.791-24.555 26.59-43.618 50.012-56.658a121.086 121.086 0 0 1 30.684-12.01 147.9 147.9 0 0 1 15.485 28.7q3.25 8.073 5.658 16.121c-17.247 2.087-60.955 10.066-93.783 39.15zm9.59 33.228c-.262-.278-.5-.525-.734-.758a114.707 114.707 0 0 0 -4.367-20.272c31.384-30.223 77.39-37.857 92.381-39.59a152.916 152.916 0 0 1 2.274 56.386c-11.26-7.069-24.527-10.226-39.58-9.377-14.529.824-30.916 5.285-49.974 13.614zm18.824 53.591a69.489 69.489 0 0 1 14.117 4.23c11.708 5.051 17.59 12.241 17.922 21.936a261.848 261.848 0 0 1 -44.433 42.642c9.972-28.297 13-50.966 12.394-68.808z"/></svg>