<?xml version="1.0"?>
<svg xmlns="http://www.w3.org/2000/svg" viewBox="0 0 512 512" style="fill:white" width="512" height="512"><g id="Out_line" data-name="Out line"><path d="M440,432H408a56.056,56.056,0,0,0-24.01379,5.4082,55.54365,55.54365,0,0,0-10.17859-3.68164L351.82,389.75122A90.11945,90.11945,0,0,0,400,310.05859V280a7.99969,7.99969,0,0,0-14.3999-4.7998l-21.88819,29.18457a12.54831,12.54831,0,0,1-21.68945-2.87012l-.9331-2.33106a12.47889,12.47889,0,0,1,3.812-14.46l18.40869-14.72656a77.03378,77.03378,0,0,0,23.40088-88.76074l-.61377-1.53321a77.1442,77.1442,0,0,0-7.42774-14.12109L350.65625,123.5625a8.00008,8.00008,0,0,0-14.501,6.00684l6.68213,33.41211A59.954,59.954,0,0,1,344,174.71875v1.26367a59.85323,59.85323,0,0,1-29.05908,51.32324l-.29151.17481a79.99849,79.99849,0,0,0-3.49414-63.05859,7.99971,7.99971,0,0,0-13.55517-1.22168l-10.79541,14.39257a11.08764,11.08764,0,0,1-16.7085,1.18946l-.79785-.79785a11.14091,11.14091,0,0,1-2.916-10.52833l2.83741-11.35058a11.03451,11.03451,0,0,1,7.25146-7.8291,27.07555,27.07555,0,0,0,18.45264-27.62891l-6.94434-97.21777a8,8,0,0,0-15.69775-1.53418L252.29,95.19922a49.41967,49.41967,0,0,1-12.71484,21.91016l-9.35987,9.35546a65.06082,65.06082,0,0,0-13.44873,72.958l.40332.9082a47.905,47.905,0,0,1,.11817,38.334,44.82134,44.82134,0,0,0-11.73975-20.43066,28.76177,28.76177,0,0,1-7.89209-14.74708l-5.81152-29.05664a7.99983,7.99983,0,0,0-15.27246-1.40136s-5.42774,13.56933-9.97852,24.85547a44.04588,44.04588,0,0,0,1.41943,36.06543l.24121.48437a13.84381,13.84381,0,0,1-4.84716,17.77148l-.78662.51172a54.29756,54.29756,0,0,0-13.84229,12.94434l-.96289,1.28223a60.91577,60.91577,0,0,0-7.11035,60.83984A90.51489,90.51489,0,0,0,158.21765,354.085L92.28943,432H72a56.06322,56.06322,0,0,0-56,56,8.00008,8.00008,0,0,0,8,8H488a8.00008,8.00008,0,0,0,8-8A56.06322,56.06322,0,0,0,440,432Zm-84.94434,0H332.28125l-21.34753-32.02124a90.13054,90.13054,0,0,0,26.07116-4.08057Zm-55.08642,7.51611A55.63839,55.63839,0,0,0,272,432H250.43433l30.3413-48.54614,8.54712,12.95239c.007.0105.01563.01953.02271.03l-.00171.00122L314.2,433.72168A55.59586,55.59586,0,0,0,299.96924,439.51611Zm-87.94147.00171A55.59522,55.59522,0,0,0,184,432h-1.56567l67.98315-108.77344,34.68164,23.1211-53.978,86.36352A55.58469,55.58469,0,0,0,212.02777,439.51782Zm-84.014-2.10962a55.94112,55.94112,0,0,0-15.34027-4.728L170.2511,364.634a90.20676,90.20676,0,0,0,12.92419,7.8982l13.37744,6.68847L163.56567,432H152A55.65557,55.65557,0,0,0,128.01379,437.4082Zm32.5951-160.85547.96338-1.2832a38.33127,38.33127,0,0,1,9.76806-9.13672l.80127-.52148a29.84083,29.84083,0,0,0,10.43652-38.30664l-.24169-.48535a28.03213,28.03213,0,0,1-.915-22.92188l.54541,2.72754a44.719,44.719,0,0,0,12.26806,22.92383,28.70145,28.70145,0,0,1,6.97119,29.5332l-.79589,2.38867a8.00013,8.00013,0,0,0,13.24072,8.19239l4.936-4.92579a64.01785,64.01785,0,0,0,13.20557-70.90136l-.40332-.90821a49.17119,49.17119,0,0,1,10.13623-55.1455l9.36084-9.35645A65.45373,65.45373,0,0,0,267.72656,99.4082l7.63867-28.00976,3.59961,50.38867a11.08292,11.08292,0,0,1-7.5542,11.30957,26.96236,26.96236,0,0,0-17.71337,19.12793l-2.83741,11.35059a27.22173,27.22173,0,0,0,7.12354,25.72168l.79736.79785a27.08775,27.08775,0,0,0,40.82422-2.90235l2.01416-2.68457a63.893,63.893,0,0,1-4.77441,43.91407l-8,16a8.00011,8.00011,0,0,0,11.271,10.43847l23.05713-13.834A75.85493,75.85493,0,0,0,360,175.98242v-1.26367a75.93724,75.93724,0,0,0-.55176-9.124l5.90821,8.8623a61.11055,61.11055,0,0,1,5.88525,11.18848l.61377,1.5332a61.03122,61.03122,0,0,1-18.54053,70.32422l-18.40918,14.72656a28.38811,28.38811,0,0,0-8.67138,32.89649l.93261,2.331a28.5478,28.5478,0,0,0,49.34473,6.52735L384,304v6.05859A73.94157,73.94157,0,0,1,310.05908,384h-9.75342l-10.20532-15.46558,12.68384-20.29419a8.00017,8.00017,0,0,0-2.34668-10.89648l-48-32a8.00113,8.00113,0,0,0-11.22168,2.416L205.071,365.59155l-14.74041-7.36987a74.62882,74.62882,0,0,1-34.96045-36.83594A44.88965,44.88965,0,0,1,160.60889,276.55273ZM72,448h32a40.15485,40.15485,0,0,1,8.03992.81958A55.86727,55.86727,0,0,0,96.58057,480H32.80371A40.07012,40.07012,0,0,1,72,448Zm80,0h32a39.88693,39.88693,0,0,1,14.32574,2.64258A55.81672,55.81672,0,0,0,184.58057,480H112.80371A40.07012,40.07012,0,0,1,152,448Zm48.80371,32A40.07012,40.07012,0,0,1,240,448h32a40.07012,40.07012,0,0,1,39.19629,32Zm126.61572,0a55.81743,55.81743,0,0,0-13.74292-29.355A39.94283,39.94283,0,0,1,328,448h32a40.07012,40.07012,0,0,1,39.19629,32Zm88,0a55.86766,55.86766,0,0,0-15.45935-31.18042A40.15433,40.15433,0,0,1,408,448h32a40.07012,40.07012,0,0,1,39.19629,32Z"/></g></svg>
