<svg id="Capa_1" enable-background="new 0 0 512 512" height="512" viewBox="0 0 512 512" style="fill:white;" width="512" xmlns="http://www.w3.org/2000/svg"><g><path d="m459.5 384.5v-377c0-4.143-3.357-7.5-7.5-7.5h-347c-28.949 0-52.5 23.552-52.5 52.5v407c0 28.948 23.551 52.5 52.5 52.5h347c4.143 0 7.5-3.357 7.5-7.5v-30c0-1.989-.79-3.896-2.196-5.304-21.89-21.889-21.89-57.504 0-79.393 1.406-1.407 2.196-3.314 2.196-5.303zm-15-37.5h-332v-332h332zm-377-294.5c0-18.11 12.904-33.261 30-36.745v331.792c-11.672 1.677-22.119 7.197-30 15.247zm37.5 444.5c-20.678 0-37.5-16.822-37.5-37.5v-60c0-20.678 16.822-37.5 37.5-37.5h339.5v15h-339.5c-12.407 0-22.5 10.094-22.5 22.5v60c0 12.406 10.093 22.5 22.5 22.5h339.5v15zm321.249-60h-298.749v-15h298.749c-.258 2.476-.403 4.977-.403 7.5s.145 5.024.403 7.5zm-313.749-37.5v60c0 4.136-3.364 7.5-7.5 7.5s-7.5-3.364-7.5-7.5v-60c0-4.136 3.364-7.5 7.5-7.5s7.5 3.364 7.5 7.5zm15 60v-7.5h301.969c1.746 5.251 4.103 10.282 7.043 15h-310.302c.832-2.347 1.29-4.871 1.29-7.5zm301.969-52.5h-301.969v-7.5c0-2.629-.458-5.153-1.29-7.5h310.302c-2.94 4.718-5.297 9.749-7.043 15z"/><path d="m284.995 268.25 21.939-38h43.879c2.68 0 5.155-1.43 6.495-3.75s1.34-5.18 0-7.5l-21.939-38 21.939-38c1.34-2.32 1.34-5.18 0-7.5s-3.815-3.75-6.495-3.75h-43.879l-21.939-38c-1.34-2.32-3.815-3.75-6.495-3.75s-5.155 1.43-6.495 3.75l-21.939 38h-43.879c-2.68 0-5.155 1.43-6.495 3.75s-1.34 5.18 0 7.5l21.939 38-21.939 38c-1.34 2.32-1.34 5.18 0 7.5s3.815 3.75 6.495 3.75h43.879l21.939 38c1.34 2.32 3.815 3.75 6.495 3.75s5.155-1.43 6.495-3.75zm52.828-53h-22.228l11.114-19.25zm-39.549 0h-39.549l-19.774-34.25 19.774-34.25h39.549l19.775 34.25zm39.549-68.5-11.114 19.25-11.114-19.25zm-59.323-34.25 11.114 19.25h-22.228zm-59.323 34.25h22.228l-11.114 19.25zm0 68.5 11.114-19.25 11.114 19.25zm48.209 15h22.228l-11.114 19.25z"/><path d="m399.5 181c0-66.72-54.28-121-121-121s-121 54.28-121 121 54.28 121 121 121 121-54.28 121-121zm-227 0c0-58.448 47.551-106 106-106 58.448 0 106 47.552 106 106s-47.552 106-106 106c-58.449 0-106-47.552-106-106z"/><path d="m135 188.5c-4.142 0-7.5 3.357-7.5 7.5v128.5c0 4.143 3.358 7.5 7.5 7.5h287c4.143 0 7.5-3.357 7.5-7.5v-287c0-4.143-3.357-7.5-7.5-7.5h-287c-4.142 0-7.5 3.357-7.5 7.5v128.5c0 4.143 3.358 7.5 7.5 7.5s7.5-3.357 7.5-7.5v-121h272v272h-272v-121c0-4.143-3.358-7.5-7.5-7.5z"/></g></svg>