<svg id="Icons" style="fill:crimson;" height="512" viewBox="0 0 74 74" width="512" xmlns="http://www.w3.org/2000/svg"><path d="m55 62.125h-36a17 17 0 0 1 0-34h36a17 17 0 0 1 0 34zm-36-32a15 15 0 0 0 0 30h36a15 15 0 0 0 0-30z"/><path d="m42.292 30.125h-10.584a1 1 0 0 1 -1-1v-3.625a2.586 2.586 0 0 1 2.584-2.583h7.416a2.586 2.586 0 0 1 2.584 2.583v3.625a1 1 0 0 1 -1 1zm-9.584-2h8.584v-2.625a.584.584 0 0 0 -.584-.583h-7.416a.584.584 0 0 0 -.584.583z"/><path d="m37 24.917a1 1 0 0 1 -1-1 10.052 10.052 0 0 0 -10.042-10.042h-3.958a1 1 0 0 1 0-2h3.958a12.056 12.056 0 0 1 12.042 12.042 1 1 0 0 1 -1 1z"/><path d="m19.982 53a1 1 0 0 1 -1-1v-13.75a1 1 0 0 1 2 0v13.75a1 1 0 0 1 -1 1z"/><path d="m26.857 46.125h-13.75a1 1 0 0 1 0-2h13.75a1 1 0 0 1 0 2z"/><path d="m52.219 42.038a3.294 3.294 0 1 1 3.293-3.294 3.3 3.3 0 0 1 -3.293 3.294zm0-4.587a1.294 1.294 0 1 0 1.293 1.293 1.295 1.295 0 0 0 -1.293-1.293z"/><path d="m52.219 54.8a3.294 3.294 0 1 1 3.293-3.293 3.3 3.3 0 0 1 -3.293 3.293zm0-4.587a1.294 1.294 0 1 0 1.293 1.294 1.295 1.295 0 0 0 -1.293-1.295z"/><path d="m58.6 48.418a3.293 3.293 0 1 1 3.293-3.293 3.3 3.3 0 0 1 -3.293 3.293zm0-4.586a1.293 1.293 0 1 0 1.293 1.293 1.295 1.295 0 0 0 -1.293-1.293z"/><path d="m45.838 48.418a3.293 3.293 0 1 1 3.293-3.293 3.3 3.3 0 0 1 -3.293 3.293zm0-4.586a1.293 1.293 0 1 0 1.293 1.293 1.3 1.3 0 0 0 -1.293-1.293z"/></svg>